<?xml version="1.0" encoding="utf-8"?>
<!-- Generator: Adobe Illustrator 26.5.0, SVG Export Plug-In . SVG Version: 6.00 Build 0)  -->
<svg version="1.1" id="Layer_1" xmlns="http://www.w3.org/2000/svg" xmlns:xlink="http://www.w3.org/1999/xlink" x="0px" y="0px"
	 viewBox="0 0 666 666" style="enable-background:new 0 0 666 666;" xml:space="preserve">
<style type="text/css">
	.st0{fill:#5289FF;}
</style>
<path class="st0" d="M83.4,83.4v499.1h499.1V83.4H83.4z M354.8,396.4c0,49.7-0.3,86.6-0.7,89.7c-0.1,1-0.3,1.9-0.4,2.9
	c-0.1,0.7-0.2,1.5-0.4,2.2c-0.1,0.5-0.2,1.1-0.3,1.6c-0.1,0.5-0.2,1.1-0.4,1.6c-3.8,16.4-12.1,29-24.5,37.2
	c-0.4,0.3-0.8,0.5-1.2,0.8c-0.4,0.3-0.8,0.5-1.2,0.7c-0.3,0.2-0.5,0.3-0.8,0.5c-0.2,0.1-0.3,0.2-0.5,0.3c-0.4,0.2-0.8,0.4-1.2,0.7
	c-0.8,0.4-1.6,0.8-2.5,1.2c-5.6,2.6-11.9,4.6-18.8,5.8c-2.6,0.4-5.2,0.8-7.7,1c-7.7,0.7-15.2,0.6-22.4-0.5c-0.3,0-0.6-0.1-0.9-0.1
	c-12.8-2-24.4-6.7-34-13.8l0,0c-0.6-0.5-1.3-1-1.9-1.5l-0.1-0.1c-0.4-0.4-0.9-0.7-1.3-1.1c-0.4-0.4-0.9-0.7-1.3-1.1
	c-0.9-0.8-1.8-1.7-2.7-2.6c-6.9-7-15.8-20.6-14.3-21.9c1.4-1.3,36.5-22.2,37.2-22.2c0.4,0,1.7,1.7,2.9,3.7
	c9.2,16.2,20.3,22.2,35.3,19c10.6-2.2,15.6-8.7,17-22.1c0.4-4,0.7-38.8,0.7-86.5V312h46.4V396.4z M543.1,480.1
	c-0.5,12-1.6,16.9-6.2,26.5c-0.1,0.2-0.2,0.4-0.3,0.5c-2.1,4.3-3.6,6.7-6.3,9.8l0,0c-0.8,0.9-1.7,1.9-2.7,2.9
	c-4.6,4.9-9.9,9-15.8,12.3c-0.3,0.1-0.6,0.3-0.8,0.5c-7.9,4.3-16.9,7.2-27,8.7c-0.2,0-0.5,0.1-0.7,0.1c-0.6,0.1-1.1,0.2-1.7,0.2
	h-0.1c-4.8,0.6-9.6,0.9-14.2,1c-11.8,0.2-22.9-1.2-33.2-4.2c-0.5-0.1-1-0.3-1.4-0.4c-0.5-0.2-1.1-0.3-1.6-0.5
	c-12.6-4.1-23.8-10.6-33.1-19.4c-0.3-0.3-0.6-0.6-0.9-0.9c-0.3-0.3-0.6-0.6-1-0.9c-0.4-0.4-0.8-0.8-1.3-1.4
	c-0.1-0.1-0.1-0.1-0.2-0.2c-2.6-2.9-6.2-7.5-9.1-11.5c0-0.1-0.1-0.1-0.1-0.2c-2.7-3.7-4.7-6.9-4.8-7.7l0,0c0-0.4,35-21,37.2-21.8
	c0.8-0.3,1.9,0.8,3.8,3.7c6.7,10.1,16.4,17.9,26.5,21.4c7.4,2.6,21,3.2,28.1,1.4c13.2-3.5,20.3-11.1,20.3-22.2
	c0-11.9-6.8-18.7-28.1-28.1c-5.3-2.3-14.4-6.4-20.2-8.9c-29.9-13.2-44.4-27.1-50.9-48.7c-2.5-8.4-3.2-24.8-1.5-33.4
	c2.5-12.2,7.4-21.2,16.4-30.1c10-9.9,20.8-15.2,36.1-17.9c9.3-1.6,28.4-1.1,37,1.1c16.9,4.2,30.3,13.7,40.4,28.7l4,6l-1.8,1.4
	c-1,0.8-9.2,6.1-18.2,11.9l-16.3,10.5l-3.2-4.9c-6.5-9.8-13.9-14.2-24.6-14.9c-11.2-0.6-18.8,3.1-22.7,11.1c-1,2.1-1.7,4.5-1.9,7
	c-0.4,3.3,0,6.7,0.9,9.5l0,0c0.2,0.6,0.4,1.1,0.7,1.7c1.2,2.4,2.7,4.5,5.1,6.6c0.2,0.1,0.3,0.3,0.5,0.4s0.3,0.3,0.5,0.4
	c0.3,0.2,0.6,0.5,0.9,0.7c0.1,0,0.1,0.1,0.2,0.1c0.3,0.3,0.7,0.5,1.1,0.8l0,0c2.1,1.4,4.5,2.9,7.6,4.5c0,0,0,0,0.1,0
	c0.5,0.3,1.1,0.6,1.7,0.9c0.3,0.1,0.6,0.3,0.9,0.5c0,0,0,0,0.1,0c0.5,0.2,1,0.5,1.5,0.7c0.5,0.3,1.1,0.5,1.6,0.8
	c0.6,0.3,1.1,0.5,1.7,0.8c0.5,0.2,1,0.5,1.6,0.7c0.4,0.2,0.8,0.4,1.2,0.5c0.8,0.4,1.6,0.7,2.5,1.1c0.1,0.1,0.2,0.1,0.4,0.2l1,0.4
	c0.4,0.2,0.8,0.4,1.2,0.5c0.4,0.2,0.9,0.4,1.4,0.6c0.9,0.4,1.9,0.8,2.8,1.2c23.7,10.2,36.3,17.6,46.3,27.1
	C538.2,443,543.9,458.4,543.1,480.1z"/>
</svg>
