<?xml version="1.0" encoding="utf-8"?>
<!-- Generator: Adobe Illustrator 26.5.0, SVG Export Plug-In . SVG Version: 6.00 Build 0)  -->
<svg version="1.1" id="Layer_1" xmlns="http://www.w3.org/2000/svg" xmlns:xlink="http://www.w3.org/1999/xlink" x="0px" y="0px"
	 viewBox="0 0 666 666" style="enable-background:new 0 0 666 666;" xml:space="preserve">
<style type="text/css">
	.st0{fill:#5289FF;}
</style>
<g>
	<path class="st0" d="M378.1,278.9c0-21.9-15.4-34-42.6-34h-50v70.5h42.1C360.2,315.4,378.1,302.3,378.1,278.9z"/>
	<path class="st0" d="M335.2,343.4h-49.6v77.7h51.8c33.9,0,51.8-13.6,51.8-39.1C389.2,356.5,370.7,343.4,335.2,343.4z"/>
	<path class="st0" d="M559.9,266.2c-9.5-30.6-10.8-68.2-9.8-97.2c1.1-30.2-22.5-58-54.3-58H170.2c-31.8,0-55.3,27.8-54.3,58
		c1,29-0.3,66.6-9.8,97.2c-9.5,30.7-25.5,50.1-51.7,52.6v28.3c26.2,2.5,42.2,21.9,51.7,52.6c9.5,30.6,10.8,68.2,9.8,97.2
		c-1.1,30.2,22.5,58,54.3,58h325.7c31.8,0,55.3-27.8,54.3-58c-1-29,0.3-66.6,9.8-97.2c9.5-30.7,25.5-50.1,51.7-52.6v-28.3
		C585.4,316.4,569.4,296.9,559.9,266.2z M345.1,451.1H248V214.9h96.6c42.9,0,71.1,23.2,71.1,58.9c0,25-18.9,47.4-43.1,51.4v1.3
		c32.9,3.6,55,26.4,55,57.8C427.6,425.9,396.6,451.1,345.1,451.1z"/>
</g>
</svg>
