<?xml version="1.0" encoding="utf-8"?>
<!-- Generator: Adobe Illustrator 26.5.0, SVG Export Plug-In . SVG Version: 6.00 Build 0)  -->
<svg version="1.1" id="Layer_1" xmlns="http://www.w3.org/2000/svg" xmlns:xlink="http://www.w3.org/1999/xlink" x="0px" y="0px"
	 viewBox="0 0 666 666" style="enable-background:new 0 0 666 666;" xml:space="preserve">
<style type="text/css">
	.st0{fill:#5289FF;}
</style>
<g>
	<path class="st0" d="M590.3,333.1L590.3,333.1c0-34.1-42.7-66.4-108.1-86.4c15.1-66.7,8.4-119.8-21.2-136.8
		c-6.8-4-14.7-5.9-23.4-5.9v-0.1c-28.8,0-66.6,20.6-104.8,56.2c-38.2-35.5-75.9-55.8-104.8-55.8v0.1c-8.8,0-16.8,1.9-23.7,5.9
		c-29.5,17-36.1,70-20.9,136.5c-65.2,20.1-107.7,52.3-107.7,86.3c0,34.1,42.7,66.4,108.1,86.4c-15.1,66.7-8.4,119.8,21.2,136.8
		c6.8,4,14.8,5.9,23.6,5.9c28.8,0,66.6-20.6,104.8-56.2c38.2,35.5,75.9,55.8,104.8,55.8c8.8,0,16.8-1.9,23.7-5.9
		c29.5-17,36.1-70,20.9-136.5C547.8,399.3,590.3,367,590.3,333.1z M437.5,127.3L437.5,127.3c4.8,0.1,8.7,1,12,2.8
		c14.3,8.2,20.5,39.3,15.6,79.4c-1.2,9.9-3,20.2-5.3,30.8c-20.6-5-43-8.9-66.6-11.4c-14.2-19.4-28.8-37-43.6-52.4
		C383.6,144.7,415.7,127.3,437.5,127.3z M380.4,414.9c-15.6,1.4-31.5,2.1-47.4,2.1c-15.8,0-31.7-0.7-47.2-2
		c-8.7-12.5-17.2-25.8-25.4-39.9c-8-13.7-15.2-27.7-21.8-41.7c6.5-14.1,13.8-28.1,21.7-41.9c8.2-14.2,16.6-27.6,25.3-40.1
		c15.6-1.4,31.5-2.1,47.4-2.1c15.8,0,31.7,0.7,47.2,2c8.7,12.5,17.2,25.8,25.4,39.9c8,13.7,15.2,27.7,21.8,41.7
		c-6.6,14.1-13.8,28.1-21.7,41.9l0,0C397.5,389,389.1,402.4,380.4,414.9z M240.1,386.8c4.9,8.4,10,16.6,15.1,24.5
		c-14.9-2.2-29.3-4.9-43-8.3c3.9-13.5,8.7-27.5,14.2-41.4C230.6,370,235.1,378.4,240.1,386.8z M211.9,263.1
		c13.7-3.3,28.2-6.1,43.2-8.3c-5.1,8.1-10.3,16.4-15.1,24.9c-4.8,8.4-9.3,16.8-13.6,25.2C220.7,290.8,215.8,276.7,211.9,263.1z
		 M425.9,386.4c4.8-8.4,9.3-16.9,13.6-25.3l0,0c5.7,14.1,10.5,28.1,14.5,41.7c-13.7,3.4-28.2,6.2-43.2,8.4
		C416,403.2,421.1,394.9,425.9,386.4z M425.8,279.3c-4.8-8.4-10-16.6-15.1-24.5c14.9,2.2,29.3,4.9,43,8.3
		c-3.9,13.5-8.7,27.5-14.2,41.4C435.3,296.1,430.8,287.7,425.8,279.3z M361.8,226.6c-9.4-0.4-19.1-0.7-28.8-0.7
		c-9.9,0-19.6,0.2-29.2,0.7c9.4-12.3,19.2-23.5,28.8-33.6C342.4,203.1,352.2,214.3,361.8,226.6z M215.9,130.5
		c3.1-1.9,7.2-2.7,12.1-2.7v-0.1c21.7,0,53.9,17.3,88.1,48.9c-14.7,15.4-29.4,32.9-43.3,52.3c-23.7,2.5-46.2,6.4-66.7,11.5
		c-2.4-10.5-4.2-20.7-5.5-30.4C195.7,169.9,201.8,138.8,215.9,130.5z M189.5,396.8c-10.4-3.3-20.2-6.8-29.4-10.7l0,0
		C123,370.3,99,349.5,99,333.1c0-16.5,24-37.3,61.2-53.1c9-3.9,18.9-7.3,29.1-10.6c6,20.6,13.8,42,23.6,63.9
		C203.1,355.1,195.4,376.4,189.5,396.8z M228.4,538.8c-4.7-0.1-8.7-1-11.9-2.8l0,0c-14.3-8.2-20.5-39.3-15.6-79.4
		c1.2-9.9,3-20.2,5.3-30.8c20.6,5,43,8.9,66.6,11.4c14.2,19.4,28.8,37,43.6,52.4C282.3,521.4,250.2,538.8,228.4,538.8z M333.2,473.1
		c-9.8-10.1-19.5-21.3-29.2-33.6c9.4,0.4,19.1,0.7,28.8,0.7c9.9,0,19.6-0.2,29.2-0.7C352.6,451.8,342.9,463,333.2,473.1z
		 M450.1,535.6c-3.1,1.9-7.2,2.7-12.1,2.7c-21.7,0-53.9-17.3-88.1-48.9c14.7-15.4,29.4-32.9,43.3-52.3c23.7-2.5,46.2-6.4,66.7-11.5
		c2.4,10.6,4.3,20.8,5.5,30.5C470.3,496.2,464.2,527.3,450.1,535.6z M505.8,386.1L505.8,386.1c-9,3.9-18.9,7.3-29.1,10.6
		c-6-20.6-13.8-42-23.6-63.9c9.6-21.8,17.4-43.1,23.3-63.6c10.4,3.3,20.2,6.8,29.5,10.7c37.1,15.8,61.2,36.6,61.2,53.1
		C566.9,349.5,542.9,370.4,505.8,386.1z"/>
	<ellipse class="st0" cx="332.9" cy="333.1" rx="47.9" ry="47.9"/>
</g>
</svg>
