<?xml version="1.0" encoding="utf-8"?>
<!-- Generator: Adobe Illustrator 26.5.0, SVG Export Plug-In . SVG Version: 6.00 Build 0)  -->
<svg version="1.1" id="Layer_1" xmlns="http://www.w3.org/2000/svg" xmlns:xlink="http://www.w3.org/1999/xlink" x="0px" y="0px"
	 viewBox="0 0 666 666" style="enable-background:new 0 0 666 666;" xml:space="preserve">
<style type="text/css">
	.st0{fill:#5289FF;}
</style>
<g>
	<g>
		<path class="st0" d="M395.7,409.2l-60.1-34.8c-3.8-2.2-8.8-2.2-12.6,0l-60.1,34.8c-3.9,2.2-6.3,6.5-6.3,11v69.4
			c0,4.5,2.4,8.7,6.3,11l15.8,9.1c7.6,3.8,10.4,3.8,13.9,3.8c11.3,0,17.8-6.8,17.8-18.8v-68.5c0-1-0.8-1.7-1.7-1.7h-7.6
			c-1,0-1.7,0.8-1.7,1.7v68.5c0,5.3-5.5,10.6-14.4,6.1l-16.5-9.5c-0.6-0.3-0.9-0.9-0.9-1.6v-69.4c0-0.7,0.4-1.3,1-1.6l60.1-34.7
			c0.6-0.3,1.3-0.3,1.9,0l60.1,34.7c0.6,0.3,0.9,1,0.9,1.7v69.4c0,0.7-0.4,1.3-0.9,1.6l-60.1,34.7c-0.5,0.3-1.3,0.3-1.9,0l-15.4-9.2
			c-0.5-0.3-1-0.4-1.5-0.1c-4.3,2.4-5.1,2.7-9.1,4.1c-1,0.3-2.5,0.9,0.5,2.6l20.1,11.9c1.9,1.1,4.1,1.7,6.3,1.7
			c2.2,0,4.4-0.6,6.3-1.7l60.1-34.7c3.9-2.3,6.3-6.5,6.3-11v-69.4C402,415.6,399.5,411.4,395.7,409.2z"/>
	</g>
	<g>
		<path class="st0" d="M347.8,478.6c-15.9,0-19.4-4-20.6-11.9c-0.1-0.8-0.9-1.5-1.7-1.5h-7.8c-1,0-1.7,0.8-1.7,1.7
			c0,10.1,5.5,22.2,31.8,22.2c19.1,0,30-7.5,30-20.6c0-13-8.8-16.5-27.3-18.9c-18.7-2.5-20.6-3.7-20.6-8.1c0-3.6,1.6-8.4,15.4-8.4
			c12.4,0,16.9,2.7,18.8,11c0.2,0.8,0.9,1.4,1.7,1.4h7.8c0.5,0,0.9-0.2,1.3-0.6c0.3-0.4,0.5-0.8,0.5-1.3c-1.2-14.3-10.7-21-30-21
			c-17.2,0-27.4,7.2-27.4,19.4c0,13.2,10.2,16.8,26.6,18.4c19.7,1.9,21.2,4.8,21.2,8.7C365.8,475.7,360.4,478.6,347.8,478.6z"/>
	</g>
	<g>
		<path class="st0" d="M422.9,404.7c-6.2,0-11.6,5-11.6,11.6c0,6.4,5.3,11.6,11.6,11.6c6.4,0,11.6-5.2,11.6-11.6
			C434.5,409.8,429.1,404.7,422.9,404.7z M422.9,426.1c-5.3,0-9.7-4.4-9.7-9.8c0-5.5,4.4-9.7,9.7-9.7c5.3,0,9.8,4.3,9.8,9.7
			C432.6,421.6,428.3,426.1,422.9,426.1z"/>
	</g>
	<g>
		<path class="st0" d="M425.1,416.5c0.9-0.3,2.5-0.8,2.5-3.2c0-3.4-3-3.4-4.5-3.4h-4.5v13h2.5v-5.2h2.3c0.9,0,1.2,0.4,1.3,1.1
			c0,0.2,0.4,3.5,0.5,4.1h2.8c-0.4-0.6-0.5-2.4-0.7-3.4C427,417.7,426.9,416.6,425.1,416.5z M423,415.5h-2v-3.6h2.1
			c0.7,0,1.9,0,1.9,1.8C425,414.4,424.7,415.5,423,415.5z"/>
	</g>
	<g>
		<path class="st0" d="M139.1,258.7L75.3,222c-1.1-0.6-2.3-1-3.5-1c-0.1,0-0.6,0-0.7,0c-1.2,0.1-2.4,0.4-3.5,1L3.9,258.7
			c-2.4,1.4-3.9,3.9-3.9,6.7l0.1,98.8c0,1.4,0.7,2.7,1.9,3.3c1.2,0.7,2.6,0.7,3.8,0l37.9-21.7c2.4-1.4,3.9-3.9,3.9-6.7V293
			c0-2.8,1.5-5.3,3.8-6.7l16.1-9.3c1.2-0.7,2.5-1,3.9-1c1.3,0,2.7,0.3,3.8,1l16.1,9.3c2.4,1.4,3.9,3.9,3.9,6.7v46.2
			c0,2.7,1.5,5.3,3.9,6.7l37.9,21.7c1.2,0.7,2.7,0.7,3.9,0s1.9-2,1.9-3.3l0.1-98.8C142.9,262.6,141.5,260.1,139.1,258.7z"/>
	</g>
	<g>
		<path class="st0" d="M487.7,150.7l-38-21.2c-1.2-0.7-2.6-0.6-3.8,0c-1.2,0.7-1.9,2-1.9,3.3v97.9c0,1-0.5,1.9-1.3,2.3
			c-0.8,0.5-1.9,0.5-2.7,0l-16-9.2c-2.4-1.4-5.3-1.4-7.7,0l-63.8,36.8c-2.4,1.4-3.9,3.9-3.9,6.7V341c0,2.8,1.5,5.3,3.9,6.7
			l63.8,36.8c2.4,1.4,5.3,1.4,7.7,0l63.8-36.8c2.4-1.4,3.9-3.9,3.9-6.7V157.5C491.7,154.7,490.2,152.1,487.7,150.7z M443.8,316.8
			c0,0.7-0.4,1.3-1,1.7L421,331.1c-0.6,0.3-1.3,0.3-1.9,0l-21.9-12.6c-0.6-0.3-1-1-1-1.7v-25.3c0-0.7,0.4-1.3,1-1.7l21.9-12.7
			c0.6-0.3,1.3-0.3,1.9,0l21.9,12.7c0.6,0.3,1,1,1,1.7v25.3H443.8z"/>
	</g>
	<g>
		<path class="st0" d="M662.2,259.7l-63.4-36.8c-2.4-1.4-5.3-1.4-7.7,0l-63.8,36.8c-2.4,1.4-3.9,3.9-3.9,6.7V340
			c0,2.8,1.5,5.3,3.9,6.7l63.4,36.1c2.3,1.3,5.2,1.3,7.6,0l38.3-21.3c1.2-0.7,2-2,2-3.3c0-1.4-0.7-2.7-1.9-3.4L572.5,318
			c-1.2-0.7-1.9-2-1.9-3.3v-23.1c0-1.4,0.7-2.6,1.9-3.3l20-11.5c1.2-0.7,2.7-0.7,3.8,0l20,11.5c1.2,0.7,1.9,2,1.9,3.3v18.2
			c0,1.4,0.7,2.7,1.9,3.3c1.2,0.7,2.7,0.7,3.9,0l38.2-22.2c2.4-1.4,3.8-3.9,3.8-6.7v-17.8C666,263.6,664.5,261.1,662.2,259.7z"/>
	</g>
	<g>
		<path class="st0" d="M595.5,287.4c-0.5-0.3-1-0.3-1.5,0l-12.2,7.1c-0.5,0.3-0.7,0.8-0.7,1.3v14.1c0,0.5,0.3,1,0.7,1.3l12.2,7.1
			c0.5,0.3,1,0.3,1.5,0l12.2-7.1c0.5-0.3,0.7-0.8,0.7-1.3v-14.1c0-0.5-0.3-1-0.7-1.3L595.5,287.4z"/>
	</g>
	<g>
		<polygon class="st0" points="174.2,267.9 174.2,338.5 194.5,303.2 		"/>
	</g>
	<g>
		<path class="st0" d="M177,345.5l0.1,0.1c0.2,0.1,0.3,0.3,0.5,0.4c0.2,0.2,0.4,0.3,0.6,0.4l53.7,30.8l8,4.7l-42-72.7L177,345.5z"/>
	</g>
	<g>
		<path class="st0" d="M313.9,346c0.2-0.1,0.3-0.2,0.5-0.4l-71-123c-0.5,0.1-1.1,0.4-1.5,0.7l-63.2,36.4l-0.4,0.2
			c-0.5,0.3-0.9,0.6-1.3,0.9l71,123c0.1,0,0.2-0.1,0.3-0.1c0,0,0,0,0.1,0c0.2-0.1,0.4-0.2,0.6-0.2c0.3-0.1,0.5-0.2,0.7-0.4
			l63.5-36.6C313.5,346.3,313.7,346.2,313.9,346z"/>
	</g>
	<g>
		<path class="st0" d="M314.4,260.8c-0.1-0.1-0.2-0.2-0.3-0.2c-0.3-0.2-0.6-0.4-0.9-0.6l-42.4-24.4l-19.6-11.3l42.1,73L314.4,260.8z
			"/>
	</g>
	<g>
		<polygon class="st0" points="317.2,338.5 317.2,267.9 296.8,303.2 		"/>
	</g>
</g>
</svg>
