<?xml version="1.0" encoding="utf-8"?>
<!-- Generator: Adobe Illustrator 26.5.0, SVG Export Plug-In . SVG Version: 6.00 Build 0)  -->
<svg version="1.1" id="Layer_1" xmlns="http://www.w3.org/2000/svg" xmlns:xlink="http://www.w3.org/1999/xlink" x="0px" y="0px"
	 viewBox="0 0 666 666" style="enable-background:new 0 0 666 666;" xml:space="preserve">
<style type="text/css">
	.st0{fill:#5289FF;}
</style>
<g>
	<path class="st0" d="M289.2,504.3h-16.6v42.8c-0.3,0-31.3,0.1-35.9,0c-9.1-0.1-9.8-4.7-9.7-6.7v-36h-16.5c0.4,0.4,0,36.4,0,37.1
		c0.1,8.2,10.5,15.3,26.9,15.5h35.1v4.3c0,1.8,1.3,7.1-9.4,8.2h-52.3v11.1H263c8.3-0.2,26.2-3.4,26.1-17.8
		C289.2,562.7,289.3,504.3,289.2,504.3z"/>
	<path class="st0" d="M188.9,481.5c-12.6-3.9-21-0.5-24.8,7.9L139,545.6l-24.3-56.2c-3.7-8.5-12.2-11.9-24.8-7.9
		c-5.2,1.6-7.8,4.7-7.8,11v65.2h16.5v-65.3l25.6,56.9c3,6.9,7.2,9.3,15.3,9.3c8.1,0,12.1-2.4,15.1-9.3l25.6-56.9v65.3h16.5v-65.2
		C196.7,486.1,194.2,483,188.9,481.5z"/>
	<path class="st0" d="M210.5,504.5L210.5,504.5L210.5,504.5z"/>
	<path class="st0" d="M316.2,482.7c-9.9,3.1-14.2,8-14.2,16.5v9.6c0,7.4,8.4,13.8,22.6,15.3c1.6,0.1,3.2,0.2,4.8,0.2h17.2
		c0.6,0,1.3,0,1.7,0.1c5.2,0.4,7.5,1.4,9.1,3.3c1,1,1.3,1.9,1.3,2.9v9.6c0,1.2-0.8,2.7-2.4,3.9c-1.4,1.3-3.8,2.1-7,2.3
		c-0.6,0-1.1,0.1-1.7,0.1H302v11l0,0h47.5c5.6,0,11-1.2,15.3-3.2c7.2-3.3,10.6-7.7,10.6-13.6v-12.1c0-4.8-4-9.2-11.8-12.2
		c-4.1-1.6-9.2-2.4-14.1-2.4h-20c-6.7,0-9.9-2-10.6-6.5c-0.2-0.5-0.2-1-0.2-1.5v-7.5c0-0.4,0-0.9,0.2-1.4c0.8-3.4,2.5-4.3,8.4-4.9
		c0.5,0,1.1-0.1,1.6-0.1H376v-11h-46.4C322.9,481.3,319.4,481.7,316.2,482.7z"/>
	<path class="st0" d="M468.1,539v-39.3c0-10-7-16-20.9-17.9c-1.5-0.2-3.1-0.3-4.6-0.3h-31.4c-1.5,0-3,0.1-4.5,0.3
		c-13.9,1.9-20.9,8-20.9,17.9V539l0,0c0,9.1,5.1,14.7,15.6,17.5c3.5,1,6.7,1.4,9.7,1.4h17.7l13.3-0.8l13.2,11.9h19.2l-16.3-14.7
		C465.1,551.4,468.1,547.1,468.1,539z M452.6,538.4c0,0.5,0,1.1-0.2,1.6c-0.5,2.3-1.9,4.1-4.2,5.3l-12-10.9H417l13.8,12.5h-15
		c-6.5,0-10.8-2.5-11.8-7.1c-0.2-0.6-0.3-1.2-0.3-1.7l0,0v-37.4c0-5,4.8-8.2,12.1-8.2h24.9c6.4,0,10.6,2.4,11.6,6.7
		c0.2,0.5,0.2,1.1,0.2,1.5v37.7H452.6z"/>
	<path class="st0" d="M495,538.3v-57h-16.5v57.1l0,0c0,11.3,8.4,17.7,25.4,19c1.6,0.1,3.2,0.2,4.8,0.2h43.1v-11h-43.4
		C498.7,546.6,495,544.2,495,538.3z"/>
	<path class="st0" d="M581.6,503.7V503c-2.1-2.7-2.7-6.4-4.6-9.3l-8.6-8.6c-8.4-11.2-19.1-21-30.4-29.1c-9-6.5-29.3-15.3-33.1-25.8
		l-0.7-0.7c6.4-0.7,13.9-3,19.9-4.6c9.9-2.7,18.8-2,29.1-4.6l13.9-4v-2.6c-5.2-5.3-8.9-12.4-14.6-17.2c-14.8-12.6-31-25.2-47.6-35.7
		c-9.2-5.8-20.6-9.6-30.4-14.6c-3.3-1.7-9.1-2.5-11.2-5.3c-5.1-6.6-7.9-14.9-11.9-22.4c-8.3-16-16.5-33.5-23.8-50.3
		c-5-11.5-8.3-22.8-14.6-33.1c-30-49.4-62.4-79.2-112.5-108.5c-10.7-6.2-23.5-8.7-37.1-11.9l-21.8-1.3c-4.4-1.9-9.1-7.3-13.2-9.9
		c-16.6-10.5-59.2-33.3-71.4-3.4c-7.8,18.9,11.6,37.4,18.5,47c4.9,6.7,11.1,14.3,14.6,21.8c2.3,5,2.7,10,4.6,15.2
		c4.8,12.9,9,27.1,15.2,39c3.1,6.1,6.6,12.4,10.6,17.9c2.4,3.3,6.6,4.8,7.3,9.9c-4.1,5.7-4.3,14.6-6.6,21.8
		c-10.3,32.6-6.4,73.1,8.6,97.3c4.6,7.4,15.5,23.3,30.4,17.2c13.1-5.3,10.1-21.8,13.9-36.4c0.8-3.3,0.3-5.7,2-7.9v0.7l11.9,23.8
		c8.8,14.2,24.5,29,37.7,39c6.9,5.2,12.3,14.2,21.2,17.2V423h-0.7c-1.7-2.7-4.4-3.8-6.6-5.9c-5.2-5.1-10.9-11.4-15.2-17.2
		c-12.1-16.4-22.7-34.3-32.4-52.9c-4.6-8.9-8.7-18.7-12.6-27.8c-1.5-3.5-1.5-8.8-4.6-10.6c-4.3,6.6-10.6,12-13.9,19.8
		c-5.3,12.5-6,27.8-7.9,43.7c-1.2,0.4-0.6,0.1-1.3,0.7c-9.2-2.2-12.5-11.7-15.9-19.8c-8.7-20.6-10.3-53.7-2.6-77.4
		c2-6.1,10.9-25.4,7.3-31.1c-1.7-5.6-7.4-9-10.6-13.2c-3.9-5.3-7.9-12.4-10.6-18.5c-7.1-16-10.4-34.1-17.9-50.3
		c-3.6-7.8-9.6-15.6-14.6-22.4c-5.5-7.6-11.6-13.3-15.9-22.4c-1.5-3.3-3.6-8.5-1.3-11.9c0.4-2,2-3.5,4-4c3.8-3,14.5,1,18.5,2.6
		c10.6,4.4,19.5,8.6,28.5,14.6c4.3,2.8,8.7,8.4,13.9,9.9h5.9c9.3,2.1,19.7,0.7,28.4,3.3c15.4,4.7,29.2,11.9,41.7,19.8
		c38.1,24.1,69.3,58.4,90.6,99.3c3.4,6.6,4.9,12.9,7.9,19.8c6.1,14,13.8,28.6,19.8,42.3c6.1,13.7,11.9,27.6,20.5,39
		c4.5,6,21.9,9.2,29.8,12.6c5.5,2.3,14.6,4.8,19.8,7.9c10,6,19.7,13.2,29.1,19.9c4.6,3.3,18.8,10.4,19.8,16.4
		c-23.3-0.6-41,1.5-56.2,7.9c-4.3,1.8-11.2,1.9-11.9,7.3c2.4,2.5,2.7,6.2,4.6,9.3c3.6,5.9,9.8,13.7,15.2,17.9
		c6,4.5,12.1,9.3,18.5,13.2c11.4,6.9,24.1,10.9,35.1,17.9c6.5,4.1,12.9,9.3,19.2,13.9C575.5,498.7,577.6,502.3,581.6,503.7z"/>
	<path class="st0" d="M240.3,158.4v0.7h0.7c2.3,4.8,6.4,7.8,9.3,11.9l6.6,13.9l0.7-0.7c4.1-2.9,6-7.5,5.9-14.6
		c-1.6-1.7-1.9-3.9-3.3-6c-1.9-2.7-5.6-4.3-7.9-6.6l0,0C247.4,157,243.9,157.6,240.3,158.4z"/>
	<path class="st0" d="M571.7,534.1c-6.4,0-12.2,4.9-12.2,12.2s5.8,12.2,12.2,12.2s12.2-4.9,12.2-12.2S578.1,534.1,571.7,534.1z
		 M571.7,555.9c-5.3,0-9.5-4.1-9.5-9.6s4.2-9.6,9.5-9.6c5.2,0,9.5,4.1,9.5,9.6C581.1,551.8,576.9,555.9,571.7,555.9z"/>
	<path class="st0" d="M577.5,543.3c0-2.8-1.8-4-5.2-4h-5.4v13.9h2.3v-6h2.2l3.6,6l0,0h2.7l-4-6.1
		C575.8,546.9,577.5,545.9,577.5,543.3z M569.2,545.3L569.2,545.3v-4h2.7c1.4,0,3.1,0.3,3.1,1.9c0,1.9-1.5,2.1-3.3,2.1H569.2z"/>
</g>
</svg>
