<?xml version="1.0" encoding="utf-8"?>
<!-- Generator: Adobe Illustrator 26.5.0, SVG Export Plug-In . SVG Version: 6.00 Build 0)  -->
<svg version="1.1" id="Layer_1" xmlns="http://www.w3.org/2000/svg" xmlns:xlink="http://www.w3.org/1999/xlink" x="0px" y="0px"
	 viewBox="0 0 666 666" style="enable-background:new 0 0 666 666;" xml:space="preserve">
<style type="text/css">
	.st0{fill:#5289FF;}
</style>
<g>
	<path class="st0" d="M292.2,264.9c-7.1-2.8-14.7-4.1-22.3-3.8c-4.9,0-9.2,0.1-13,0.2c-3.8,0.1-6.4,0.3-7.8,0.5v63.7
		c2.6,0.2,5.1,0.3,7.3,0.3h10.1c7.4,0,14.8-1.2,21.8-3.5c6.1-1.8,11.5-5.3,15.6-10.1c4-4.7,6-11.2,6-19.5c0.2-5.9-1.4-11.7-4.4-16.8
		C302.3,270.8,297.6,267.1,292.2,264.9z"/>
	<path class="st0" d="M480,111H186c-44.5,0-80.6,36.1-80.6,80.6v282.7c0,44.5,36.1,80.6,80.6,80.6h294c44.5,0,80.6-36.1,80.6-80.6
		V191.7C560.7,147.1,524.6,111,480,111z M340.1,331.9c-7.6,10.6-18.2,18.7-30.5,23.1c-12.8,4.8-27.1,6.4-42.8,6.4
		c-4.5,0-7.6,0-9.5-0.2c-1.8-0.1-4.6-0.2-8.2-0.2v61c0.2,1.3-0.7,2.6-2.1,2.7c-0.2,0-0.5,0-0.7,0H210c-1.4,0-2.1-0.8-2.1-2.4V227.2
		c0-1.4,0.6-2.1,1.8-2.1c3.3,0,6.2,0,10.7-0.2s9.3-0.2,14.5-0.3s10.7-0.2,16.5-0.3c5.8-0.1,11.6-0.2,17.3-0.2
		c15.5,0,28.5,1.9,39.1,5.8c9.6,3.2,18.3,8.6,25.5,15.6c6.1,6.1,10.9,13.4,13.9,21.5c2.9,7.9,4.3,16.2,4.3,24.6
		C351.4,307.9,347.7,321.3,340.1,331.9z M474.1,405.9c-5.3,7.6-12.7,13.5-21.2,17c-9.3,4.1-20.7,6.1-34.4,6.1
		c-8.7,0.1-17.3-0.7-25.8-2.4c-6.7-1.2-13.2-3.3-19.4-6.1c-1.4-0.7-2.2-2.1-2.1-3.7v-33c-0.1-0.7,0.2-1.3,0.8-1.7
		c0.5-0.3,1.2-0.2,1.7,0.2c7.3,4.3,15.2,7.5,23.5,9.3c7.3,1.8,14.8,2.8,22.3,2.9c7.1,0,12.4-0.9,15.7-2.7c3.1-1.4,5.1-4.5,5-7.9
		c0-2.6-1.5-5.2-4.6-7.6s-9.3-5.4-18.6-8.9c-9.6-3.3-18.7-8-27-13.7c-6-4.2-10.9-9.6-14.4-16c-3-6-4.5-12.7-4.4-19.4
		c0-8.1,2.2-16,6.4-22.9c4.8-7.6,11.7-13.6,19.9-17.4c9-4.5,20.2-6.7,33.6-6.7c7.9-0.1,15.7,0.5,23.5,1.7c5.6,0.7,11.2,2.2,16.4,4.4
		c0.8,0.2,1.5,0.9,1.8,1.7c0.2,0.7,0.3,1.5,0.3,2.3v30.9c0,0.7-0.3,1.4-0.9,1.8c-0.8,0.4-1.8,0.4-2.6,0c-5.7-2.9-11.9-5.1-18.2-6.4
		c-7-1.6-14.1-2.4-21.2-2.4c-3.9-0.1-7.7,0.4-11.5,1.4c-2.4,0.5-4.5,1.9-6,3.8c-1,1.5-1.5,3.4-1.5,5.2c0.1,1.8,0.7,3.5,1.8,4.9
		c1.8,2.1,4,3.8,6.4,5c4.4,2.3,8.8,4.4,13.4,6.3c10.2,3.4,20,8.1,29.2,13.9c6.2,3.9,11.4,9.3,15,15.7c3,6.1,4.6,12.8,4.4,19.5
		C481.6,389.6,479.1,398.4,474.1,405.9z"/>
</g>
</svg>
