<?xml version="1.0" encoding="utf-8"?>
<!-- Generator: Adobe Illustrator 26.5.0, SVG Export Plug-In . SVG Version: 6.00 Build 0)  -->
<svg version="1.1" id="Layer_1" xmlns="http://www.w3.org/2000/svg" xmlns:xlink="http://www.w3.org/1999/xlink" x="0px" y="0px"
	 viewBox="0 0 666 666" style="enable-background:new 0 0 666 666;" xml:space="preserve">
<style type="text/css">
	.st0{fill:#5289FF;}
</style>
<g>
	<path class="st0" d="M343.5,484.4L343.5,484.4h-18.9c-1.1,0-2.1,0.8-2.3,1.9l-13.5,62.3c-0.2,1-1.3,1.9-2.3,1.9H293
		c-13.3,0-11.8-9.2-9-21.8l0.1-0.4l1.6-8.6l0.7-3.5l6.1-29.9c0.2-1-0.5-1.9-1.5-1.9h-19.5c-1.1,0-2,0.8-2.3,1.9l-8.9,41.6
		c-4.8,22-3.5,43,22.7,43.7h41.9c1.1,0,2.1-0.8,2.3-1.9l17.7-83.4C345.2,485.3,344.5,484.4,343.5,484.4z"/>
	<path class="st0" d="M140.3,484.2L140.3,484.2h-20.8c-1.1,0-2.1,0.8-2.3,1.9l-4,17.4c-0.2,0.8,0.2,1.6,1,1.8c0.2,0,0.3,0.1,0.5,0.1
		h21c1.1,0,2.1-0.8,2.3-1.9l3.8-17.4C142,485,141.3,484.2,140.3,484.2z"/>
	<path class="st0" d="M76.7,606.9c4.2,0,11.3,0.1,15.8,0.1L76.7,606.9z"/>
	<polygon class="st0" points="105,539.4 107.9,526.3 104.6,541.2 104.2,543.1 	"/>
	<path class="st0" d="M75.3,606.9h1.4C76.2,606.9,75.7,606.9,75.3,606.9L75.3,606.9z"/>
	<path class="st0" d="M110.5,515c0.2-0.8,0.3-1.4,0.4-1.7L110.5,515z"/>
	<path class="st0" d="M108.8,522.8l-0.4,1.9C108.5,524.2,108.6,523.5,108.8,522.8z"/>
	<path class="st0" d="M108.8,522.6c0,0.1,0,0.2-0.1,0.3L108.8,522.6z"/>
	<path class="st0" d="M110.3,516.3l0.3-1.3C110.5,515.4,110.4,515.8,110.3,516.3z"/>
	<path class="st0" d="M110.9,513.4L110.9,513.4C110.9,513.3,110.9,513.3,110.9,513.4z"/>
	<path class="st0" d="M108.8,522.6c0.2-0.9,0.4-1.8,0.6-2.8L108.8,522.6z"/>
	<path class="st0" d="M109.9,517.8c0.1-0.5,0.2-1,0.3-1.5L109.9,517.8z"/>
	<path class="st0" d="M109.5,519.8l0.5-2C109.8,518.4,109.6,519.1,109.5,519.8z"/>
	<path class="st0" d="M108,526.2L108,526.2C108,526.3,108,526.3,108,526.2z"/>
	<path class="st0" d="M108.4,524.7c-0.2,0.8-0.3,1.3-0.3,1.5L108.4,524.7z"/>
	<path class="st0" d="M134.4,511.4l-0.1-0.1h-20.9c-1.1,0-2.1,0.8-2.3,1.9l-5.9,26.1l-0.8,3.7l-5.6,26.7c-0.3,1.2-0.6,2.5-1,3.7
		c0,0-3.9,11.7-10.5,11.5l-6.5-0.1c-1.1,0-2.1,0.8-2.4,1.8L73.9,605c-0.2,0.8,0.2,1.6,1,1.8c0.2,0,0.3,0.1,0.5,0.1l17.2,0.1
		c16.5,0,25.2-9.1,30.7-35.4l12.6-58.4C136.1,512.3,135.4,511.4,134.4,511.4z"/>
	<path class="st0" d="M519.5,506.2c0.4,0,0.7-0.1,1-0.3c0.5-0.3,0.7-0.9,0.6-1.6l-0.1,0.1l-0.9-3.6l-1.3-5.6
		c-1.7-6.6-6.7-10.5-17.6-10.5h-50.1c-1.1,0-2,0.8-2.3,1.9l-0.8,3.7l-1.1,5.5l-0.4,2l0.4-1.9l0,0l0.3-1.2l0,0l-0.7,3.1l-3.5,16.4
		l-5.6,26.3l1.6-7.7l-4.7,22l-3.2,15l0,0c-0.2,1,0.5,1.9,1.5,1.9h1.9c-0.5,0-1.2-0.1-1.9-0.3v-0.1c0.6,0.2,1.4,0.3,1.9,0.3h15.8
		c1,0,2.4-0.2,2.9-0.4l-0.1,0.1l0,0c-0.6,0.2-1.9,0.4-3,0.4h1.9c1.1,0,2-0.8,2.3-1.9l0.2-1.1c0.1-0.3,0.2-0.6,0.3-0.9l6-29.7
		l6.4-30.1c0.2-1,1.3-1.9,2.3-1.9L519.5,506.2L519.5,506.2z"/>
	<path class="st0" d="M396.7,483.2L396.7,483.2c-36.9,0-45.6,22.4-50.5,44.9c-4.9,23-4.5,44.6,33.7,44.6h6h4.7l24.3-0.1
		c1.1-0.1,2-0.8,2.3-1.9l3.7-18c0.2-0.9-0.3-1.7-1.2-1.8c-0.1,0-0.3-0.1-0.4-0.1l0,0h-34.2c-12.5,0-16.9-3.1-16.4-11.8
		c0.1-1,1.1-2.4,2.1-2.5h53c0.9,0,1.7-0.6,2-1.4c0.1-0.2,0.1-0.3,0.1-0.5C433.9,503.9,431.5,483.2,396.7,483.2z M405.1,516.3
		c-0.1,1.1-1.2,2-2.2,2h-28.7c-1,0-1.5-0.7-1.3-1.5v-0.2l0.1-0.5c2.8-7.3,8.3-12.1,18.8-12.1C403.6,504.1,405.9,509.9,405.1,516.3
		L405.1,516.3z"/>
	<path class="st0" d="M591.1,471.8h-6l0,0h-3.8h-15.9c-1.2,0.1-2.3,0.6-3,1.6L527.1,525c-0.6,0.9-1.3,0.7-1.5-0.3l-2.6-11.4
		c-0.3-1.1-1.2-1.8-2.3-1.9H498c-1.1,0-1.7,0.8-1.4,1.8l10.1,35.6c0.3,1,0.3,2.7,0.1,3.7l-4.5,17.2c-0.3,0.7,0.1,1.5,0.9,1.8
		c0.2,0.1,0.4,0.1,0.6,0.1h22.4c1.1,0,2.1-0.8,2.4-1.9l4.5-17.2c0.4-1.2,0.9-2.4,1.6-3.4l57.2-75.9
		C592.5,472.5,592.1,471.8,591.1,471.8z"/>
	<path class="st0" d="M206.1,461c-37.3,0-53.5,26.9-59.7,56.1c-6.2,29.4,1.9,55.2,39,55l56.6-0.2c1.1-0.1,2.1-0.8,2.4-1.9l4.8-18.2
		c0.3-0.7-0.1-1.5-0.9-1.8c-0.2-0.1-0.4-0.1-0.6-0.1h-9.1c-0.9,0-1.4-0.6-1.3-1.3c0-0.1,0.1-0.3,0.1-0.4v-0.1
		c0,0,10.3-25.1,12.7-39.6C253.3,489.2,243.6,461,206.1,461z M211.1,549.3h-21.9c-16.6,0-20.7-13-16.6-32.2c4-19.6,12-31.8,28.3-33
		c22.4-1.7,26.8,14,21.4,32.2l0,0l-0.5,1.8c0,0-2.6,9.4-3.7,13.1l-0.3,1.1c0,0.1-0.1,0.2-0.1,0.3l-0.1,0.2v-0.1c0,0.1,0,0.1,0,0.1
		l-4.1,14.7C213.2,548.5,212.3,549.2,211.1,549.3z"/>
	<path class="st0" d="M277.5,242.2c3.7,5.3,7.7,11.5,12.6,15.7l5.5,5.5l1.4,1.4l5.6,5.2l0.3,0.2l6.5,5.4l1.5,1.2l6.9,5l4.8,3.2
		l5.1,3.1l0.7,0.4l4.5,2.5l1.6,0.8l3.1,1.6l0.5,0.2l6.5,3.1l1.4,0.6l5.5,2.2l2.3,0.8l4.9,1.7l2.2,0.7c2.4,0.7,4.7,1.8,7.1,2.1
		c126.3,20.9,155.4-76.3,155.4-76.3c-26.3,37.8-77.2,55.9-131.5,41.8l-7.1-2.1l-2.2-0.7l-5-1.7l-2.3-0.8l-5.4-2.2l-1.5-0.6l-6.6-3.1
		l-3.3-1.8l-1.9-1l-5.2-2.9l-5.1-3.1l-4.8-3.2l-6.8-5l-1.5-1.2c-24-18.8-42.6-44.2-51.6-73.5c-9.2-30.2-7.4-64,8.9-91.5l-20.1,28.5
		c-24.5,35-23.1,82.3-4.1,119.5C269.8,230.4,273.5,236.4,277.5,242.2z"/>
	<path class="st0" d="M410.4,198.4l3.1,1.1l1.4,0.4l4.5,1.3c69.7,13.5,88.4-35.8,93.7-43c-16.6,23.8-44.2,29.6-78.6,21.3
		c-2.8-0.7-5.6-1.6-8.3-2.5c-3.3-1.2-6.6-2.5-9.8-4.1c-6.1-2.9-11.8-6.4-17.2-10.5c-30.6-23.2-49.8-67.4-29.6-103.5L358.8,74
		c-14.4,21.2-15.8,47.5-5.8,71C363.5,169.9,385.2,189.2,410.4,198.4z"/>
	<path class="st0" d="M261.7,407.3l1.5,0.7l6,2.8l1.3,0.6l6.9,2.9l1.7,0.7l6.5,2.4l0.8,0.3l7.3,2.4l1.8,0.5l7.4,2.1
		c163.5,29.9,211-98.3,211-98.3c-39.9,52-110.6,65.7-177.8,50.4c-2.5-0.6-5-1.4-7.5-2.1l-1.8-0.6c-2.4-0.7-4.8-1.5-7.2-2.3l-1-0.4
		c-2.1-0.7-4.2-1.5-6.4-2.4l-1.8-0.7c-2.3-0.9-4.6-1.9-6.9-2.9l-1.4-0.6l-5.8-2.7l-1.8-0.8c-1.5-0.7-3-1.5-4.5-2.3l-3-1.6
		c-1.8-1-3.6-2-5.4-3l-1.8-1c-2.4-1.4-4.7-2.8-7-4.3c-0.6-0.4-1.3-0.8-1.9-1.3l-5-3.3c-0.6-0.4-1.1-0.7-1.6-1.1l-4.7-3.4l-2.1-1.6
		l-4.2-3.3l-1.9-1.5l-5.3-4.5c-0.2-0.2-0.4-0.3-0.6-0.5c-1.9-1.8-3.7-3.4-5.6-5l-1.6-1.5l-4-3.9l-1.6-1.6c-1.7-1.7-3.3-3.4-4.9-5.2
		c-1.8-1.9-3.5-3.9-5.2-5.9l-1.3-1.5l-3.6-4.4l-1.3-1.8l-4.1-5.5c-37.1-50.7-50.5-120.8-20.5-178.4l-26.6,33.5
		c-33.8,48.6-29.6,111.8-3.8,163.5l1.9,3.7l1.2,2.3l0.7,1.3l1.3,2.4l2.5,4.2l1.4,2.3l2.9,4.5l1.2,1.9l4.1,6l0.8,1.1l3.8,5l1.4,1.8
		l3.7,4.3l1.3,1.6l4.9,5.6l0.3,0.3l4.9,5.2l1.6,1.6l3.9,3.7l1.6,1.5l5.4,4.9l1,0.9l4.9,4.1l1.8,1.6l4.1,3.2l2.2,1.8l4.6,3.3l2.1,1.5
		l4.5,2.9l1.9,1.3l7,4.3l1.9,1.1l5.3,2.9l2.9,1.5l3.8,2L261.7,407.3z"/>
</g>
</svg>
