<?xml version="1.0" encoding="utf-8"?>
<!-- Generator: Adobe Illustrator 26.5.0, SVG Export Plug-In . SVG Version: 6.00 Build 0)  -->
<svg version="1.1" id="Layer_1" xmlns="http://www.w3.org/2000/svg" xmlns:xlink="http://www.w3.org/1999/xlink" x="0px" y="0px"
	 viewBox="0 0 666 666" style="enable-background:new 0 0 666 666;" xml:space="preserve">
<style type="text/css">
	.st0{fill:#5289FF;}
</style>
<g>
	<path class="st0" d="M439.7,305.4c-7.4-0.1-14.7,1.6-21.4,4.9c-6.5,3.2-12,8.1-16,14c-4.2,6.1-6.3,14.2-6.3,24.1
		c-0.2,6.7,0.9,13.3,3.2,19.5c1.8,5,4.8,9.6,8.6,13.4c3.6,3.5,8,6.1,12.8,7.6c5.1,1.6,10.4,2.5,15.7,2.4c2.9,0,5.5-0.1,7.9-0.3
		c2.3-0.2,4.5-0.6,6.7-1.2v-83.4c-1.7-0.4-3.3-0.8-5-0.9C443.9,305.5,441.8,305.4,439.7,305.4z"/>
	<path class="st0" d="M480,111H186c-44.5,0-80.6,36.1-80.6,80.6v282.7c0,44.5,36.1,80.6,80.6,80.6h294c44.5,0,80.6-36.1,80.6-80.6
		V191.7C560.7,147.1,524.6,111,480,111z M349,423.4c-0.2,0.7-0.9,0.3-2.1,0.5h-43.4c-3.1,0-5.2-0.1-6.4-2.1
		c-4.1-7.9-8.1-15.8-12.2-23.7c-4.1-7.8-8.4-15.8-13-24c-4.6-8.1-9.1-16.4-13.6-24.7H258c-4.1,8.1-8.3,16.3-12.7,24.4
		s-8.7,16.2-13,24.3c-4.3,8-8.6,16-13.1,24c-0.8,1.8-2.2,2-4.3,2H173c-0.8,0-1.3,0.3-1.4-0.5c-0.1-0.7,0-1.5,0.5-2.1l59-96.8
		l-57.4-97.1c-0.6-0.8-0.7-1.5-0.3-2c0.5-0.5,1.1-0.8,1.8-0.8h43.1c0.9-0.1,1.9,0.1,2.7,0.5c0.7,0.4,1.4,1,1.8,1.7
		c3.7,8.1,7.7,16.3,12.2,24.4c4.5,8.1,9,16.2,13.6,24.1s8.8,16,12.7,24.1h0.3c4.1-8.3,8.2-16.5,12.4-24.4c4.2-7.9,8.4-15.9,12.8-24
		c4.4-8,8.6-16,12.7-24c0.2-0.8,0.7-1.4,1.2-2c0.8-0.4,1.6-0.5,2.4-0.5h40c0.9-0.2,1.9,0.3,2.1,1.3c0.2,0.7-0.1,1.3-0.6,1.8
		l-56.8,93.8l60.8,99.6C349.1,421.8,349.2,422.6,349,423.4z M492.5,415.9c-9.9,4.1-20.3,7.2-30.8,9.2c-9.7,1.8-19.5,2.7-29.3,2.7
		c-14.1,0.2-28-2.7-40.8-8.6c-11.9-5.5-21.9-14.5-28.6-25.8c-6.9-11.5-10.4-25.9-10.4-43.2c-0.1-14,3.5-27.8,10.4-40
		c7.1-12.4,17.6-22.6,30.2-29.3c13.2-7.3,29.2-11,48-11c1,0,2.3,0,4,0.2c1.6,0.1,3.6,0.3,5.8,0.5v-60.2c0-1.4,0.6-2.1,1.8-2.1h38.5
		c0.9-0.1,1.7,0.5,1.8,1.4c0,0.2,0,0.3,0,0.5v180.5c0,3.5,0.2,7.2,0.5,11.3c0.3,4.1,0.6,7.7,0.8,11
		C494.4,414.2,493.7,415.4,492.5,415.9z"/>
</g>
</svg>
