<?xml version="1.0" encoding="utf-8"?>
<!-- Generator: Adobe Illustrator 26.5.0, SVG Export Plug-In . SVG Version: 6.00 Build 0)  -->
<svg version="1.1" id="Layer_1" xmlns="http://www.w3.org/2000/svg" xmlns:xlink="http://www.w3.org/1999/xlink" x="0px" y="0px"
	 viewBox="0 0 666 666" style="enable-background:new 0 0 666 666;" xml:space="preserve">
<style type="text/css">
	.st0{fill:#5289FF;}
</style>
<g>
	<path class="st0" d="M143.2,170.4l34.6,387.5l155,43l155.5-43.1l34.6-387.5L143.2,170.4L143.2,170.4z M450.8,262.3l-2.2,24.1
		l-0.9,10.7H265.8l4.3,48.7h173.2l-1.2,12.8L431,483.7l-0.7,8l-97.3,27l0,0l-0.2,0.1l-97.4-27l-6.7-74.6h47.7l3.4,37.9l52.9,14.3
		l0,0l0,0l53-14.3l5.5-61.6H226.6l-11.7-131l-1.1-12.8h238.1L450.8,262.3z"/>
	<polygon class="st0" points="360.3,101.5 376.9,127.2 377.4,127.2 394,101.5 394,137.3 418,137.3 418,65.1 392.8,65.1 377.4,90.5 
		361.9,65.1 336.7,65.1 336.7,137.3 360.3,137.3 	"/>
	<polygon class="st0" points="488.2,113.4 454.2,113.4 454.2,65.1 430,65.1 430,137.3 488.2,137.3 	"/>
	<polygon class="st0" points="202.7,113.1 224.7,113.1 224.7,137.3 248.9,137.3 248.9,65.1 224.7,65.1 224.7,88.9 202.7,88.9 
		202.7,65.1 178.5,65.1 178.5,137.3 202.7,137.3 	"/>
	<polygon class="st0" points="280.7,137.3 304.8,137.3 304.8,89 326.1,89 326.1,65.1 259.4,65.1 259.4,89 280.7,89 	"/>
</g>
</svg>
