<?xml version="1.0" encoding="utf-8"?>
<!-- Generator: Adobe Illustrator 26.5.0, SVG Export Plug-In . SVG Version: 6.00 Build 0)  -->
<svg version="1.1" id="Layer_1" xmlns="http://www.w3.org/2000/svg" xmlns:xlink="http://www.w3.org/1999/xlink" x="0px" y="0px"
	 viewBox="0 0 666 666" style="enable-background:new 0 0 666 666;" xml:space="preserve">
<style type="text/css">
	.st0{fill:#5289FF;}
</style>
<g>
	<path class="st0" d="M297.9,265.1c-7-2.8-14.6-4-22.4-3.8c-4.9,0-9.3,0-12.9,0.2c-3.8-0.2-6.4,0-7.8,0.2v63.7
		c2.7,0.2,5.1,0.4,7.4,0.4h10.1c7.4,0,14.8-1.1,21.8-3.4c6.1-1.7,11.4-5.3,15.6-10.1c4-4.7,5.9-11.2,5.9-19.5
		c0.2-5.9-1.3-11.8-4.4-16.9C308,271,303.4,267.2,297.9,265.1z"/>
	<path class="st0" d="M480,111H186c-44.6,0-80.6,36-80.6,80.6v282.7c0,44.6,36.1,80.6,80.6,80.6h294c44.6,0,80.6-36,80.6-80.6V191.7
		C560.7,147.1,524.6,111,480,111z M345.5,332c-7.6,10.6-18.2,18.6-30.5,23.1c-12.9,4.7-27.1,6.4-42.7,6.4c-4.6,0-7.6,0-9.5-0.2
		s-4.6-0.2-8.2-0.2V422c0.2,1.3-0.8,2.5-2.1,2.7h-36.8c-1.5,0-2.3-0.8-2.3-2.5V227.1c0-1.3,0.6-2.1,1.9-2.1c3.2,0,6.3,0,10.6-0.2
		c4.6-0.2,9.3-0.2,14.4-0.4c5.1-0.2,10.6-0.2,16.5-0.4c5.9-0.2,11.6-0.2,17.3-0.2c15.6,0,28.5,1.9,39.1,5.9
		c9.5,3.2,18.2,8.5,25.4,15.6c6.1,6.1,10.8,13.5,13.9,21.6c2.8,8,4.4,16.1,4.4,24.7C356.9,308,353.1,321.4,345.5,332z M474.9,309.3
		c0,1.5-0.9,2.1-3,2.1c-6.8-0.2-13.8,0.4-20.5,1.9c-5.5,1.1-10.8,2.8-15.9,5.1c-3.6,1.7-7,4-9.7,7v96.8c0,1.9-0.8,2.7-2.5,2.7h-37.4
		c-1.5,0.2-2.9-0.8-3-2.3V316.7c0-4.6,0-9.3-0.2-14.2c-0.2-4.9-0.2-9.9-0.4-14.8c0-4.4-0.4-8.5-0.8-12.9c-0.2-1,0.4-1.9,1.3-2.1
		c0-0.2,0.4-0.2,0.6,0h33.2c1.9,0,3.4,1.3,4,3c0.6,1.5,1,3,1.1,4.7c0.4,1.9,0.8,4,1,5.9c0.2,2.1,0.4,4.4,0.4,6.8
		c5.7-6.6,12.5-12.1,20.3-16.3c8.7-4.9,18.8-7.4,28.8-7.4c1.3-0.2,2.5,0.8,2.7,2.1V309.3z"/>
</g>
</svg>
