<?xml version="1.0" encoding="utf-8"?>
<!-- Generator: Adobe Illustrator 26.5.0, SVG Export Plug-In . SVG Version: 6.00 Build 0)  -->
<svg version="1.1" id="Layer_1" xmlns="http://www.w3.org/2000/svg" xmlns:xlink="http://www.w3.org/1999/xlink" x="0px" y="0px"
	 viewBox="0 0 666 666" style="enable-background:new 0 0 666 666;" xml:space="preserve">
<style type="text/css">
	.st0{fill:#5289FF;}
</style>
<g>
	<path class="st0" d="M143.2,170.4l34.6,387.5l155,43l155.5-43.1l34.6-387.5L143.2,170.4L143.2,170.4z M443.3,345.8l-1.2,12.8
		L431,483.7l-0.7,8l-97.3,27l0,0l-0.2,0.1l-97.4-27l-6.7-74.6h47.7l3.4,37.9l52.9,14.3l0,0l0,0l53-14.3l5.5-61.6H226.6l-4.3-47.5
		h173.1l4.3-48.7H218.1l-4.3-47.5h238.1L443.3,345.8z"/>
	<polygon class="st0" points="428.2,90.2 394.8,90.2 394.8,86 428.2,86 428.2,65.1 370.7,65.1 370.7,112.2 404.2,112.2 404.2,116.3 
		370.7,116.3 370.7,138.3 428.2,138.3 	"/>
	<polygon class="st0" points="290.1,113.2 256.6,113.2 256.6,89.1 290.1,89.1 290.1,65.1 232.5,65.1 232.5,137.3 290.1,137.3 	"/>
	<polygon class="st0" points="335.1,116.3 301.6,116.3 301.6,138.3 359.2,138.3 359.2,90.2 325.7,90.2 325.7,86 359.2,86 
		359.2,65.1 301.6,65.1 301.6,112.2 335.1,112.2 	"/>
</g>
</svg>
