<?xml version="1.0" encoding="utf-8"?>
<!-- Generator: Adobe Illustrator 26.5.0, SVG Export Plug-In . SVG Version: 6.00 Build 0)  -->
<svg version="1.1" id="Layer_1" xmlns="http://www.w3.org/2000/svg" xmlns:xlink="http://www.w3.org/1999/xlink" x="0px" y="0px"
	 viewBox="0 0 666 666" style="enable-background:new 0 0 666 666;" xml:space="preserve">
<style type="text/css">
	.st0{fill:#5289FF;}
</style>
<g>
	<path class="st0" d="M305.2,308.9c-1.8-5.8-3.7-11.6-5.5-17.4s-3.5-11.4-5-16.8s-2.9-10.3-4.1-14.8h-0.3
		c-1.7,8.2-3.9,16.4-6.4,24.4c-2.9,9.2-5.8,18.5-8.7,28.1c-3,9.6-5.9,18.4-8.7,26.6h48.3c-1.2-4.1-2.7-8.7-4.3-13.7
		C308.8,320.1,307,314.7,305.2,308.9z"/>
	<path class="st0" d="M480,111H186c-44.5,0-80.6,36.1-80.6,80.6v282.7c0,44.5,36.1,80.6,80.6,80.6h294c44.5,0,80.6-36.1,80.6-80.6
		V191.7C560.7,147.1,524.6,111,480,111z M384.3,424.8h-39.7c-1.4,0.2-2.7-0.8-3.1-2.1L326,377.4h-70.6L241.1,422
		c-0.4,1.7-1.9,2.8-3.7,2.7h-35.7c-2,0-2.7-1.1-2.1-3.4l61.1-175.9c0.6-1.8,1.2-3.9,1.8-6.3c0.8-4.1,1.2-8.2,1.2-12.4
		c-0.2-1,0.6-2,1.6-2.1c0.2,0,0.4,0,0.5,0h48.6c1.4,0,2.2,0.5,2.4,1.5l69.3,195.5C386.8,423.8,386.2,424.8,384.3,424.8z
		 M448.8,421.7c0,2-0.8,3.1-2.4,3h-37.3c-1.8,0-2.7-1-2.7-3v-146c0-1.8,0.8-2.7,2.4-2.7h37.6c1.6,0,2.4,0.9,2.4,2.7V421.7z
		 M444.9,250.4c-4.7,4.6-11,7-17.6,6.7c-6.3,0.3-12.4-2.2-16.8-6.7c-4.4-4.7-6.7-11-6.4-17.4c-0.2-6.4,2.3-12.5,6.9-17
		c4.5-4.4,10.7-6.7,16.9-6.6c7.3,0,13.1,2.2,17.3,6.6c4.3,4.6,6.5,10.7,6.3,17C451.8,239.4,449.4,245.7,444.9,250.4z"/>
</g>
</svg>
